<svg width="12" height="12" viewBox="0 0 12 12" fill="none" xmlns="http://www.w3.org/2000/svg">
<path d="M1.625 10.0625C1.625 10.5801 2.04492 11 2.5625 11H9.4375C9.95508 11 10.375 10.5801 10.375 10.0625V4.75H1.625V10.0625ZM7.875 6.23438C7.875 6.10547 7.98047 6 8.10938 6H8.89062C9.01953 6 9.125 6.10547 9.125 6.23438V7.01562C9.125 7.14453 9.01953 7.25 8.89062 7.25H8.10938C7.98047 7.25 7.875 7.14453 7.875 7.01562V6.23438ZM7.875 8.73438C7.875 8.60547 7.98047 8.5 8.10938 8.5H8.89062C9.01953 8.5 9.125 8.60547 9.125 8.73438V9.51562C9.125 9.64453 9.01953 9.75 8.89062 9.75H8.10938C7.98047 9.75 7.875 9.64453 7.875 9.51562V8.73438ZM5.375 6.23438C5.375 6.10547 5.48047 6 5.60938 6H6.39062C6.51953 6 6.625 6.10547 6.625 6.23438V7.01562C6.625 7.14453 6.51953 7.25 6.39062 7.25H5.60938C5.48047 7.25 5.375 7.14453 5.375 7.01562V6.23438ZM5.375 8.73438C5.375 8.60547 5.48047 8.5 5.60938 8.5H6.39062C6.51953 8.5 6.625 8.60547 6.625 8.73438V9.51562C6.625 9.64453 6.51953 9.75 6.39062 9.75H5.60938C5.48047 9.75 5.375 9.64453 5.375 9.51562V8.73438ZM2.875 6.23438C2.875 6.10547 2.98047 6 3.10938 6H3.89062C4.01953 6 4.125 6.10547 4.125 6.23438V7.01562C4.125 7.14453 4.01953 7.25 3.89062 7.25H3.10938C2.98047 7.25 2.875 7.14453 2.875 7.01562V6.23438ZM2.875 8.73438C2.875 8.60547 2.98047 8.5 3.10938 8.5H3.89062C4.01953 8.5 4.125 8.60547 4.125 8.73438V9.51562C4.125 9.64453 4.01953 9.75 3.89062 9.75H3.10938C2.98047 9.75 2.875 9.64453 2.875 9.51562V8.73438ZM9.4375 2.25H8.5V1.3125C8.5 1.14062 8.35938 1 8.1875 1H7.5625C7.39062 1 7.25 1.14062 7.25 1.3125V2.25H4.75V1.3125C4.75 1.14062 4.60938 1 4.4375 1H3.8125C3.64062 1 3.5 1.14062 3.5 1.3125V2.25H2.5625C2.04492 2.25 1.625 2.66992 1.625 3.1875V4.125H10.375V3.1875C10.375 2.66992 9.95508 2.25 9.4375 2.25Z" fill="#65696D"/>
</svg>
