<svg width="12" height="12" viewBox="0 0 12 12" fill="none" xmlns="http://www.w3.org/2000/svg">
<path d="M5.61461 10.7982C2.77676 6.6842 2.25 6.26197 2.25 4.75C2.25 2.67893 3.92893 1 6 1C8.07107 1 9.75 2.67893 9.75 4.75C9.75 6.26197 9.22324 6.6842 6.38539 10.7982C6.19916 11.0673 5.80082 11.0672 5.61461 10.7982ZM6 6.3125C6.86295 6.3125 7.5625 5.61295 7.5625 4.75C7.5625 3.88705 6.86295 3.1875 6 3.1875C5.13705 3.1875 4.4375 3.88705 4.4375 4.75C4.4375 5.61295 5.13705 6.3125 6 6.3125Z" fill="#65696D"/>
</svg>
